<svg width="613" height="290" viewBox="0 0 613 290" fill="none" xmlns="http://www.w3.org/2000/svg">
<path d="M0.537864 27.3916V179.322C0.558291 186.356 3.36166 193.097 8.33555 198.07C13.3094 203.044 20.0496 205.848 27.0837 205.868H67.5661C105.482 271.591 174.479 289.952 174.479 289.952C144.527 260.464 138.554 230.578 141.74 205.868H585.674C592.708 205.848 599.448 203.044 604.422 198.07C609.396 193.097 612.2 186.356 612.22 179.322V27.3916C612.2 20.3575 609.396 13.6174 604.422 8.64348C599.448 3.6696 592.708 0.866252 585.674 0.845825L27.0837 0.845825C20.0496 0.866252 13.3094 3.6696 8.33555 8.64348C3.36166 13.6174 0.558291 20.3575 0.537864 27.3916Z" fill="#F2D3D0"/>
</svg>
