<svg width="632" height="299" viewBox="0 0 632 299" fill="none" xmlns="http://www.w3.org/2000/svg">
<path d="M631.043 27.7336V184.309C631.022 191.558 628.133 198.505 623.007 203.63C617.881 208.756 610.935 211.645 603.685 211.667H561.965C522.89 279.399 451.783 298.321 451.783 298.321C482.652 267.932 488.807 237.132 485.524 211.667H28.0174C20.7682 211.645 13.822 208.756 8.69602 203.63C3.57007 198.505 0.681025 191.558 0.659973 184.309L0.659973 27.7336C0.681025 20.4845 3.57007 13.5382 8.69602 8.41227C13.822 3.28632 20.7682 0.397272 28.0174 0.376221L603.685 0.376221C610.935 0.397272 617.881 3.28632 623.007 8.41227C628.133 13.5382 631.022 20.4845 631.043 27.7336Z" fill="#F2D3D0"/>
</svg>
